<?xml version="1.0" standalone="no"?>
<!DOCTYPE svg PUBLIC "-//W3C//DTD SVG 20010904//EN"
 "http://www.w3.org/TR/2001/REC-SVG-20010904/DTD/svg10.dtd">
<svg version="1.0" xmlns="http://www.w3.org/2000/svg"
 width="800.000000pt" height="800.000000pt" viewBox="0 0 800.000000 800.000000"
 preserveAspectRatio="xMidYMid meet">
<metadata>
Created by potrace 1.14, written by Peter Selinger 2001-2017
</metadata>
<g transform="translate(0.000000,800.000000) scale(0.100000,-0.100000)"
fill="#000000" stroke="none">
<path d="M130 5897 c0 -2 263 -484 585 -1072 l585 -1068 0 -1177 0 -1177 77
-7 c42 -3 114 -6 160 -6 l83 0 0 1140 c0 816 3 1140 11 1140 27 0 485 -123
496 -134 7 -6 152 -236 324 -511 171 -275 313 -502 315 -504 2 -2 133 122 291
277 158 154 292 281 297 282 5 1 129 -134 277 -300 l269 -303 0 -543 0 -544
145 0 145 0 0 565 c0 311 1 565 3 565 7 0 1030 151 1125 166 l104 16 384 -256
c211 -141 387 -256 391 -256 5 0 91 179 193 396 102 218 190 398 196 401 6 2
215 -57 465 -132 250 -75 462 -138 472 -141 16 -5 17 -46 17 -670 l0 -664 135
0 135 0 0 626 0 626 -1001 1252 c-550 688 -1004 1252 -1008 1254 -5 1 -98 -66
-207 -151 -110 -84 -204 -156 -211 -160 -7 -5 -171 185 -450 520 -241 290
-443 533 -448 541 -9 10 -135 -136 -570 -660 -307 -370 -564 -679 -571 -687
-11 -13 -61 17 -336 200 -178 119 -335 223 -349 232 l-25 17 -283 -230 c-155
-127 -285 -230 -287 -230 -5 0 -630 443 -1791 1268 -79 56 -143 100 -143 99z
m5155 -1290 c416 -522 755 -950 753 -952 -2 -1 -246 181 -543 406 -297 225
-541 409 -542 409 -2 0 48 -78 354 -553 95 -148 169 -267 164 -265 -5 2 -223
170 -485 373 l-475 370 -1 590 c0 341 4 585 9 580 5 -6 349 -437 766 -958z
m-3365 -267 c272 -205 501 -378 509 -386 8 -7 -80 12 -195 42 -115 30 -283 73
-373 97 l-165 42 -311 415 c-171 228 -315 421 -320 429 -4 8 75 -49 176 -126
101 -77 407 -307 679 -513z m2399 -55 l392 -410 -61 -3 c-33 -2 -60 -5 -60 -7
0 -3 57 -82 126 -176 69 -94 124 -173 122 -175 -2 -2 -214 108 -471 244 l-467
247 0 360 c0 309 2 357 14 345 8 -8 190 -199 405 -425z m2103 -262 c255 -301
469 -556 477 -566 13 -18 9 -17 -27 4 -22 14 -239 142 -481 284 l-441 260 0
283 c0 155 2 282 4 282 3 0 213 -246 468 -547z m-3587 521 c121 -9 223 -19
227 -23 13 -11 417 -742 408 -736 -6 3 -217 179 -471 391 -446 372 -459 384
-422 384 21 0 137 -7 258 -16z"/>
</g>
</svg>
