<?xml version="1.0" standalone="no"?>
<!DOCTYPE svg PUBLIC "-//W3C//DTD SVG 20010904//EN"
 "http://www.w3.org/TR/2001/REC-SVG-20010904/DTD/svg10.dtd">
<svg version="1.0" xmlns="http://www.w3.org/2000/svg"
 width="562.000000pt" height="562.000000pt" viewBox="0 0 562.000000 562.000000"
 preserveAspectRatio="xMidYMid meet">
<metadata>
Created by potrace 1.14, written by Peter Selinger 2001-2017
</metadata>
<g transform="translate(0.000000,562.000000) scale(0.100000,-0.100000)"
fill="#000000" stroke="none">
<path d="M2507 5174 c-1 -1 -231 -4 -512 -8 -280 -3 -530 -8 -555 -11 -25 -2
-67 -7 -95 -11 -27 -3 -55 -10 -62 -16 -19 -16 -16 -46 7 -60 15 -10 20 -24
20 -60 0 -46 0 -46 40 -53 l40 -7 0 -174 0 -174 -40 0 -40 0 3 -100 c2 -55 6
-103 9 -106 6 -6 32 -12 56 -13 9 -1 12 -43 12 -176 0 -168 -1 -175 -20 -176
-11 -1 -24 -3 -30 -4 -5 -1 -13 -3 -17 -4 -7 -1 -8 -78 -4 -194 1 -9 4 -16 9
-16 4 1 19 1 35 0 l27 -1 0 -174 0 -173 -37 -6 -38 -7 -3 -105 -3 -105 41 0
40 0 0 -174 0 -174 -41 -7 -41 -7 3 -77 c4 -73 6 -81 42 -124 l37 -45 0 -266
0 -266 30 0 30 0 0 -720 0 -720 -32 -1 c-57 -1 -130 -8 -135 -12 -3 -3 -11
-84 -8 -87 0 -1 33 -3 74 -7 l73 -5 67 -68 c56 -57 76 -71 125 -85 83 -24 149
-14 225 35 62 40 81 64 81 99 0 15 6 21 24 21 74 0 114 28 101 69 -4 13 -12
17 -26 14 -12 -4 -25 0 -30 8 -4 8 -23 15 -41 16 -18 0 -41 2 -50 2 -16 1 -18
12 -18 82 0 54 5 92 16 115 16 32 16 36 0 47 -16 12 -16 15 5 40 l21 28 -21 6
c-26 7 -26 4 0 47 l21 36 -21 0 c-26 0 -26 1 0 44 l21 36 -21 0 c-25 0 -26 8
-6 34 19 25 19 46 0 46 -19 0 -19 5 2 37 16 24 16 26 -1 38 -17 13 -17 14 0
40 16 25 16 28 2 39 -14 10 -14 15 -2 36 18 33 17 50 -1 50 -19 0 -19 5 2 36
16 25 16 27 -1 36 -16 9 -16 12 3 44 20 34 20 34 1 34 -25 0 -25 7 0 47 20 33
20 33 0 33 -25 0 -25 7 0 48 20 32 20 32 0 32 -23 0 -24 6 -5 40 18 32 18 40
0 40 -18 0 -18 8 0 40 18 32 18 40 0 40 -19 0 -19 9 0 34 19 26 19 46 0 46
-12 0 -13 4 -6 19 13 23 33 31 60 24 16 -4 21 -13 21 -39 l0 -34 58 0 c32 0
63 -5 69 -11 10 -10 141 -16 421 -18 l102 -1 0 -578 c0 -317 -3 -587 -6 -598
-5 -18 -15 -23 -56 -26 -65 -7 -97 -35 -80 -73 15 -33 48 -45 125 -46 68 -1
67 -4 -5 -14 -27 -3 -48 -10 -48 -16 0 -17 81 -91 117 -106 53 -22 183 -19
230 6 55 28 115 90 107 113 -4 15 1 18 30 19 20 1 41 3 46 4 6 1 24 3 41 4 28
1 29 2 15 17 -20 20 -20 48 -1 64 23 19 8 30 -41 30 l-44 0 0 600 0 600 98 1
c375 3 400 5 440 33 21 14 48 26 60 26 12 0 29 11 38 25 19 29 55 33 78 9 20
-20 21 -44 1 -44 -14 0 -14 -3 0 -30 8 -16 15 -34 15 -40 0 -5 -7 -10 -15 -10
-14 0 -14 -3 0 -30 19 -37 19 -50 0 -50 -13 0 -12 -5 2 -36 14 -29 15 -37 4
-44 -12 -7 -12 -13 -1 -40 10 -25 10 -34 1 -39 -9 -6 -9 -14 1 -35 10 -24 10
-29 -4 -37 -16 -9 -16 -12 0 -40 16 -28 16 -30 0 -40 -16 -9 -16 -11 0 -40 16
-28 16 -30 0 -40 -16 -9 -16 -11 0 -40 16 -28 16 -30 0 -40 -16 -9 -16 -11 0
-40 16 -28 16 -30 -1 -40 -16 -9 -16 -12 -2 -32 19 -27 19 -47 0 -47 -14 0
-14 -3 0 -30 8 -16 15 -34 15 -40 0 -5 -7 -10 -15 -10 -14 0 -14 -3 0 -30 19
-37 19 -50 0 -50 -13 0 -12 -5 2 -36 17 -34 17 -36 0 -45 -16 -9 -16 -12 -2
-32 19 -27 19 -47 0 -47 -14 0 -14 -3 0 -30 19 -37 19 -50 0 -50 -13 0 -12 -7
5 -40 17 -33 20 -56 18 -118 l-3 -77 -73 -5 c-76 -5 -92 -15 -92 -57 0 -37 26
-53 89 -53 57 0 57 0 105 -55 103 -120 247 -144 367 -63 50 33 86 80 81 103
-2 10 6 15 25 16 59 1 88 9 100 25 16 22 16 36 0 58 -13 18 -42 24 -119 25
l-48 1 0 765 0 765 30 0 30 0 0 276 c0 268 1 277 22 307 15 20 23 50 26 88 5
74 -2 105 -28 112 -19 5 -20 13 -20 175 0 163 1 172 21 186 20 14 22 23 21
107 -1 80 -4 94 -22 106 -19 13 -20 25 -20 177 0 154 1 164 21 177 18 12 20
25 21 105 1 94 -3 114 -28 114 -12 0 -14 28 -14 169 0 160 1 169 21 182 18 13
21 27 25 117 l5 102 -26 0 -25 0 0 175 0 175 25 10 c22 8 25 16 25 55 0 43 1
45 30 45 23 0 31 5 36 25 10 42 -1 53 -58 59 -29 3 -73 8 -98 11 -67 9 -1724
26 -1733 19z m-489 -199 c22 -27 227 -248 312 -336 19 -20 66 -83 105 -140 38
-57 81 -114 95 -126 24 -21 25 -25 29 -182 l3 -161 -31 0 -31 0 0 -110 0 -110
30 0 30 0 0 -170 c0 -95 -4 -170 -9 -170 -5 0 -53 16 -108 35 -154 56 -302
104 -337 110 -17 4 -40 8 -51 10 -11 2 -46 4 -77 4 l-58 1 0 84 c0 75 3 87 21
99 17 12 21 26 21 73 1 126 -1 136 -22 141 -19 5 -20 14 -20 174 0 157 1 169
20 182 17 12 21 29 26 100 5 83 4 88 -20 112 -26 26 -26 28 -26 184 0 149 1
159 21 172 19 13 26 31 29 74 l1 20 11 -20 c6 -11 22 -33 36 -50z m1693 -21
c17 -16 19 -31 19 -178 0 -149 -2 -163 -20 -179 -17 -14 -20 -29 -20 -101 0
-68 4 -88 20 -109 18 -23 20 -40 20 -184 0 -149 -1 -160 -21 -176 -19 -17 -21
-27 -17 -112 2 -76 6 -97 21 -107 16 -12 17 -28 15 -138 l-3 -125 -307 -3
-308 -3 0 130 c0 120 2 131 20 141 18 10 20 21 20 111 0 94 -1 101 -21 106
-20 6 -21 10 -18 163 l4 157 74 99 c164 219 148 200 347 407 58 61 115 123
127 140 l22 29 3 -25 c2 -14 12 -33 23 -43z m-1191 4 l40 -13 0 -147 c0 -82
-2 -148 -4 -148 -10 0 -175 227 -192 263 -16 33 -16 39 -4 47 21 14 114 12
160 -2z m779 3 c9 -6 11 -18 8 -33 -7 -25 -111 -175 -166 -238 l-30 -35 -1
142 0 142 28 15 c30 17 138 21 161 7z m-1174 -1557 c39 -13 102 -35 140 -50
39 -14 88 -32 110 -39 66 -22 119 -46 130 -60 5 -7 19 -15 30 -17 18 -3 20
-12 23 -112 l3 -108 -38 5 c-21 3 -69 10 -108 16 -155 22 -157 22 -192 -2 -18
-12 -40 -36 -49 -52 -15 -28 -15 -34 3 -88 l20 -57 -77 0 c-42 0 -81 5 -86 10
-6 6 -33 16 -60 23 l-49 12 -3 169 c-2 159 -1 170 18 188 17 16 20 31 20 102
0 45 3 86 7 90 10 10 76 -2 158 -30z m1565 -96 c0 -24 7 -54 16 -66 13 -19 15
-50 12 -187 -2 -105 -7 -168 -14 -175 -7 -7 -54 -13 -110 -14 -55 -2 -109 -8
-121 -14 -12 -7 -46 -12 -76 -12 l-55 0 15 42 c28 83 -8 169 -79 189 -24 6
-60 18 -81 25 -20 8 -49 14 -62 14 -24 0 -25 3 -25 59 0 52 3 61 25 75 20 13
25 25 25 56 0 39 0 39 43 42 23 2 142 4 265 6 l222 4 0 -44z m-1130 -800 l0
-128 -30 0 -30 0 0 135 c0 117 2 135 18 144 33 19 42 -13 42 -151z"/>
</g>
</svg>
